<svg xmlns="http://www.w3.org/2000/svg" viewBox="0 0 1200 600" preserveAspectRatio="xMidYMid slice">
  <g fill="#0c3a2a" opacity="0.9">
    <path d="M50 520 l30 -80 l30 80 l-20 0 l0 30 l-20 0 l0 -30 z"/>
    <path d="M160 520 l30 -80 l30 80 l-20 0 l0 30 l-20 0 l0 -30 z"/>
    <path d="M260 520 l30 -80 l30 80 l-20 0 l0 30 l-20 0 l0 -30 z"/>
    <path d="M380 520 l30 -90 l30 90 l-20 0 l0 30 l-20 0 l0 -30 z" />
    <path d="M520 520 l30 -80 l30 80 l-20 0 l0 30 l-20 0 l0 -30 z"/>
    <path d="M660 520 l30 -100 l30 100 l-20 0 l0 30 l-20 0 l0 -30 z"/>
    <path d="M820 520 l30 -80 l30 80 l-20 0 l0 30 l-20 0 l0 -30 z"/>
    <path d="M980 520 l30 -90 l30 90 l-20 0 l0 30 l-20 0 l0 -30 z"/>
  </g>
</svg>